<svg xmlns="http://www.w3.org/2000/svg" xmlns:xlink="http://www.w3.org/1999/xlink" fill="none" version="1.1" width="32" height="32" viewBox="0 0 32 32"><defs><clipPath id="master_svg0_11_5449"><rect x="0" y="0" width="32" height="32" rx="8"/></clipPath></defs><g clip-path="url(#master_svg0_11_5449)"><rect x="0" y="0" width="32" height="32" rx="8" fill="#000000" fill-opacity="1"/><g><path d="M16.6257371875,27.49196259765625L25.0045171875,14.92376259765625C25.3334171875,14.42996259765625,25.2000171875,13.76260259765625,24.7059171875,13.43362259765625C24.5296171875,13.31603259765625,24.3224171875,13.25332259765625,24.1104171875,13.25342259765625L17.5225171875,13.25342259765625L17.5225171875,5.34124259765625C17.5225171875,4.74790259765625,17.041717187499998,4.26666259765625,16.4483271875,4.26666259765625C16.0889671875,4.26666259765625,15.7537071875,4.44616759765625,15.5542971875,4.74510859765625L7.1755461875,17.313262597656248C6.8465701875,17.807062597656248,6.9799767875,18.47406259765625,7.4737891874999995,18.80336259765625C7.6502751875,18.92116259765625,7.8575881875,18.98396259765625,8.0695771875,18.98396259765625L14.6574671875,18.98396259765625L14.6574671875,26.89576259765625C14.6574671875,27.48916259765625,15.1383571875,27.97036259765625,15.7317071875,27.97036259765625C16.091067187500002,27.97036259765625,16.426677187499998,27.79086259765625,16.6257371875,27.49196259765625Z" fill="#FFFFFF" fill-opacity="1" style="mix-blend-mode:passthrough"/></g></g></svg>