<svg xmlns="http://www.w3.org/2000/svg" version="1.1" xmlns:xlink="http://www.w3.org/1999/xlink" xmlns:svgjs="http://svgjs.com/svgjs" width="135" height="135"><svg xmlns="http://www.w3.org/2000/svg" xmlns:xlink="http://www.w3.org/1999/xlink" fill="none" version="1.1" width="135" height="135" viewBox="0 0 135 135"><defs><clipPath id="SvgjsClipPath1000"><rect x="0" y="0" width="135" height="135" rx="10"></rect></clipPath></defs><g clip-path="url(#master_svg0_10_2881)"><rect x="0" y="0" width="135" height="135" rx="10" fill="#000000" fill-opacity="1"></rect><g><path d="M70.1399421875,115.9816L105.4877421875,62.9598C106.8756421875,60.8765,106.3128421875,58.061,104.2280421875,56.6731C103.4842421875,56.177,102.6101421875,55.9125,101.7160421875,55.9129L73.9234421875,55.9129L73.9234421875,22.5334C73.9234421875,20.03023,71.8946421875,18,69.39144218749999,18C67.8754421875,18,66.4610421875,18.757286,65.61974218750001,20.01845L30.2719271875,73.0402C28.8840611875,75.1235,29.4468686875,77.9375,31.5301421875,79.3269C32.2746921875,79.8235,33.1492921875,80.0886,34.0436221875,80.0886L61.8363421875,80.0886L61.8363421875,113.4666C61.8363421875,115.9698,63.8650421875,118,66.3682421875,118C67.8842421875,118,69.3001421875,117.2427,70.1399421875,115.9816Z" fill="#FFFFFF" fill-opacity="1" style="mix-blend-mode:passthrough"></path></g></g></svg><style>@media (prefers-color-scheme: light) { :root { filter: none; } }
@media (prefers-color-scheme: dark) { :root { filter: none; } }
</style></svg>