<svg xmlns="http://www.w3.org/2000/svg" xmlns:xlink="http://www.w3.org/1999/xlink" fill="none" version="1.1" width="320" height="320" viewBox="0 0 320 320"><defs><clipPath id="master_svg0_10_3114"><rect x="0" y="0" width="320" height="320" rx="0"/></clipPath><linearGradient x1="0.5" y1="1" x2="0.5214396119117737" y2="0" id="master_svg1_10_6151"><stop offset="17.85714328289032%" stop-color="#3370FF" stop-opacity="1"/><stop offset="70.71428298950195%" stop-color="#51E1A6" stop-opacity="1"/></linearGradient><filter id="master_svg2_10_6165" filterUnits="objectBoundingBox" color-interpolation-filters="sRGB" x="-20" y="-16" width="270.21441650390625" height="340"><feFlood flood-opacity="0" result="BackgroundImageFix"/><feColorMatrix in="SourceAlpha" type="matrix" values="0 0 0 0 0 0 0 0 0 0 0 0 0 0 0 0 0 0 127 0"/><feOffset dy="4" dx="0"/><feGaussianBlur stdDeviation="5"/><feColorMatrix type="matrix" values="0 0 0 0 0 0 0 0 0 0 0 0 0 0 0 0 0 0 0.30000001192092896 0"/><feBlend mode="normal" in2="BackgroundImageFix" result="effect1_dropShadow"/><feBlend mode="normal" in="SourceGraphic" in2="effect1_dropShadow" result="shape"/></filter><linearGradient x1="0.5" y1="1" x2="0.5214396119117737" y2="0" id="master_svg3_10_6151"><stop offset="17.85714328289032%" stop-color="#3370FF" stop-opacity="1"/><stop offset="70.71428298950195%" stop-color="#51E1A6" stop-opacity="1"/></linearGradient></defs><g clip-path="url(#master_svg0_10_3114)"><g><path d="M160.888,303.945L266.93100000000004,144.879C271.095,138.63,269.406,130.183,263.152,126.019C260.921,124.531,258.298,123.737,255.616,123.739L172.238,123.739L172.238,23.6002C172.238,16.0907,166.152,10,158.642,10C154.094,10,149.851,12.27186,147.327,16.05534L41.28355,175.121C37.11996,181.37,38.808379,189.813,45.0582,193.981C47.29184,195.471,49.9156,196.266,52.5986,196.266L135.9767,196.266L135.9767,296.4C135.9767,303.909,142.063,310,149.572,310C154.12099999999998,310,158.368,307.728,160.888,303.945Z" fill="url(#master_svg1_10_6151)" fill-opacity="1"/></g><g filter="url(#master_svg2_10_6165)"><path d="M172.62579296875,303.945L278.66879296875004,144.879C282.83279296875,138.63,281.14379296875,130.183,274.88979296875,126.019C272.65879296875,124.531,270.03579296875,123.737,267.35379296875,123.739L183.97579296875,123.739L183.97579296875,23.6002C183.97579296875,16.0907,177.88979296875,10,170.37979296875,10C165.83179296875,10,161.58879296875,12.27186,159.06479296875,16.05534L53.02134296875,175.121C48.85775296875,181.37,50.54617196875,189.813,56.79599296875,193.981C59.02963296875,195.471,61.65339296875,196.266,64.33639296875,196.266L147.71449296875,196.266L147.71449296875,296.4C147.71449296875,303.909,153.80079296875,310,161.30979296875,310C165.85879296874998,310,170.10579296875,307.728,172.62579296875,303.945Z" fill="url(#master_svg3_10_6151)" fill-opacity="1"/></g></g></svg>