<svg xmlns="http://www.w3.org/2000/svg" xmlns:xlink="http://www.w3.org/1999/xlink" fill="none" version="1.1" width="270" height="60" viewBox="0 0 270 60"><defs><clipPath id="master_svg0_10_3017"><rect x="0" y="0" width="270" height="60" rx="0"/></clipPath><clipPath id="master_svg1_10_3024"><rect x="165" y="16" width="30.000001907348633" height="30" rx="0"/></clipPath><filter id="master_svg2_10_3019" filterUnits="objectBoundingBox" color-interpolation-filters="sRGB" x="-20" y="-16" width="310" height="100"><feFlood flood-opacity="0" result="BackgroundImageFix"/><feColorMatrix in="SourceAlpha" type="matrix" values="0 0 0 0 0 0 0 0 0 0 0 0 0 0 0 0 0 0 127 0"/><feOffset dy="4" dx="0"/><feGaussianBlur stdDeviation="5"/><feColorMatrix type="matrix" values="0 0 0 0 0 0 0 0 0 0 0 0 0 0 0 0 0 0 0.30000001192092896 0"/><feBlend mode="normal" in2="BackgroundImageFix" result="effect1_dropShadow"/><feBlend mode="normal" in="SourceGraphic" in2="effect1_dropShadow" result="shape"/></filter></defs><g clip-path="url(#master_svg0_10_3017)"><g clip-path="url(#master_svg1_10_3024)"><g><path d="M180.44940029296876,40.541095117187496L187.47830029296875,29.9977351171875C187.75430029296876,29.5834751171875,187.64240029296874,29.0236051171875,187.22780029296874,28.7476351171875C187.07990029296874,28.6489851171875,186.90610029296874,28.5963751171875,186.72830029296875,28.5964651171875L181.20174029296874,28.5964651171875L181.20174029296874,21.9589601171875C181.20174029296874,21.4612061171875,180.79832029296875,21.0574951171875,180.30057029296876,21.0574951171875C179.99910029296876,21.0574951171875,179.71785029296876,21.2080811171875,179.55057029296876,21.4588621171875L172.52166129296876,32.0021951171875C172.24568529296874,32.4164951171875,172.35759909296874,32.9760951171875,172.77185729296875,33.2522951171875C172.91991029296875,33.3510951171875,173.09382429296875,33.4037951171875,173.27166129296876,33.4037951171875L178.79822029296875,33.4037951171875L178.79822029296875,40.0409951171875C178.79822029296875,40.538795117187505,179.20164029296876,40.942495117187505,179.69940029296876,40.942495117187505C180.00086029296875,40.942495117187505,180.28240029296876,40.7918951171875,180.44940029296876,40.541095117187496Z" fill="#3370FF" fill-opacity="1" style="mix-blend-mode:passthrough"/></g></g><g filter="url(#master_svg2_10_3019)"><path d="M52.555,49L15.76,49L15.76,10.5L21.26,10.5L21.26,43.5L52.555,43.5L52.555,49ZM62.51,49L57.065,49L57.065,18.75L62.51,18.75L62.51,49ZM98.205,49Q98.205,45.37,96.8025,42.0425Q95.4,38.715,93.035,35.855Q90.67,32.995,87.755,30.685Q84.84,28.375,81.7875,26.835Q78.735,25.295,75.93,24.635L75.93,49L70.43,49L70.43,18.75L73.4,18.75L73.4,18.805Q76.37,18.97,79.6975,20.0975Q83.025,21.225,86.38,23.205Q89.735,25.185,92.7875,27.825Q95.84,30.465,98.205,33.71L98.205,18.75L103.705,18.75L103.705,49L98.205,49ZM152.6,49L127.795,49Q123.78,49,120.535,47.515Q117.29,46.03,114.952,43.39Q112.615,40.75,111.35,37.2575Q110.085,33.765,110.085,29.75Q110.085,25.79,111.35,22.2975Q112.615,18.805,114.952,16.1375Q117.29,13.47,120.535,11.985Q123.78,10.5,127.795,10.5L152.6,10.5L152.6,16L127.795,16Q124,16,121.278,17.8425Q118.555,19.685,117.07,22.82Q115.585,25.955,115.585,29.75Q115.585,33.545,117.07,36.6525Q118.555,39.76,121.278,41.63Q124,43.5,127.795,43.5L152.6,43.5L152.6,49ZM204.63,29.75Q204.63,33.765,203.365,37.2575Q202.1,40.75,199.762,43.39Q197.425,46.03,194.152,47.515Q190.88,49,186.92,49L167.505,49L167.505,43.5L186.92,43.5Q190.715,43.5,193.465,41.63Q196.215,39.76,197.672,36.6525Q199.13,33.545,199.13,29.75Q199.13,25.955,197.672,22.82Q196.215,19.685,193.465,17.8425Q190.715,16,186.92,16L164.755,16L164.755,49L159.255,49L159.255,10.5L186.92,10.5Q190.88,10.5,194.152,11.985Q197.425,13.47,199.762,16.1375Q202.1,18.805,203.365,22.2975Q204.63,25.79,204.63,29.75ZM217.17,49L211.67,49L211.67,10.5L214.42,10.5Q218.435,10.5,223.137,12.04Q227.84,13.58,232.57,16.385Q237.3,19.19,241.508,23.0675Q245.715,26.945,248.74,31.675L248.74,10.5L254.24,10.5L254.24,49L248.74,49Q248.74,43.94,246.678,39.2925Q244.615,34.645,241.205,30.7125Q237.795,26.78,233.643,23.7275Q229.49,20.675,225.2,18.7225Q220.91,16.77,217.17,16.22L217.17,49Z" fill="#FFFFFF" fill-opacity="1"/><path d="M14.76,50L53.555,50L53.555,42.5L22.26,42.5L22.26,9.5L14.76,9.5L14.76,50ZM21.26,42.5L21.26,10.5L15.76,10.5L15.76,49L52.555,49L52.555,43.5L21.26,43.5L21.26,42.5ZM127.795,50L153.6,50L153.6,42.5L127.795,42.5Q124.31,42.5,121.844,40.8057Q119.342,39.0873,117.972,36.2213Q116.585,33.3183,116.585,29.75Q116.585,26.1799,117.974,23.2481Q119.342,20.36,121.838,18.6707Q124.307,17,127.795,17L153.6,17L153.6,9.5L127.795,9.5Q123.562,9.5,120.119,11.0757Q116.679,12.6498,114.2,15.4784Q111.739,18.2875,110.41,21.9569Q109.085,25.6144,109.085,29.75Q109.085,33.9406,110.41,37.5981Q111.74,41.27,114.204,44.0529Q116.682,46.8513,120.119,48.4243Q123.562,50,127.795,50ZM204.305,37.5981Q205.63,33.9406,205.63,29.75Q205.63,25.6144,204.305,21.9569Q202.976,18.2874,200.515,15.4784Q198.035,12.6486,194.566,11.0744Q191.096,9.5,186.92,9.5L158.255,9.5L158.255,50L165.755,50L165.755,17L186.92,17Q190.411,17,192.908,18.6733Q195.426,20.3601,196.766,23.2416Q198.13,26.1762,198.13,29.75Q198.13,33.3222,196.767,36.2279Q195.426,39.0872,192.903,40.8031Q190.407,42.5,186.92,42.5L166.505,42.5L166.505,50L186.92,50Q191.096,50,194.566,48.4256Q198.032,46.8525,200.511,44.0529Q202.975,41.27,204.305,37.5981ZM165.755,16L186.92,16Q190.715,16,193.465,17.8425Q196.215,19.685,197.672,22.82Q199.13,25.955,199.13,29.75Q199.13,33.545,197.672,36.6525Q196.215,39.76,193.465,41.63Q190.715,43.5,186.92,43.5L167.505,43.5L167.505,49L186.92,49Q190.88,49,194.153,47.515Q197.425,46.03,199.762,43.39Q202.1,40.75,203.365,37.2575Q204.63,33.765,204.63,29.75Q204.63,25.79,203.365,22.2975Q202.1,18.805,199.762,16.1375Q197.425,13.47,194.153,11.985Q190.88,10.5,186.92,10.5L159.255,10.5L159.255,49L164.755,49L164.755,16L165.755,16ZM210.67,50L218.17,50L218.17,17.4095Q221.278,18.0364,224.786,19.6327Q228.981,21.5421,233.05,24.5332Q237.113,27.5196,240.449,31.3676Q243.762,35.1872,245.763,39.6981Q247.74,44.1519,247.74,49L247.74,50L255.24,50L255.24,9.5L247.74,9.5L247.74,28.4753Q245.274,25.1786,242.185,22.3321Q237.9,18.3835,233.08,15.5249Q228.256,12.6638,223.449,11.0897Q218.595,9.5,214.42,9.5L210.67,9.5L210.67,50ZM248.74,29.8676L248.74,31.675Q248.255,30.9169,247.74,30.1808Q245.041,26.3236,241.508,23.0675Q237.3,19.19,232.57,16.385Q227.84,13.58,223.137,12.04Q218.435,10.5,214.42,10.5L211.67,10.5L211.67,49L217.17,49L217.17,16.22Q217.665,16.2928,218.17,16.3902Q221.478,17.0285,225.2,18.7225Q229.49,20.675,233.643,23.7275Q237.795,26.78,241.205,30.7125Q244.615,34.645,246.678,39.2925Q248.74,43.94,248.74,49L254.24,49L254.24,10.5L248.74,10.5L248.74,29.8676ZM151.6,49L152.6,49L152.6,43.5L127.795,43.5Q124,43.5,121.278,41.63Q118.555,39.76,117.07,36.6525Q115.585,33.545,115.585,29.75Q115.585,25.955,117.07,22.82Q118.555,19.685,121.278,17.8425Q124,16,127.795,16L152.6,16L152.6,10.5L127.795,10.5Q123.78,10.5,120.535,11.985Q117.29,13.47,114.952,16.1375Q112.615,18.805,111.35,22.2975Q110.085,25.79,110.085,29.75Q110.085,33.765,111.35,37.2575Q112.615,40.75,114.952,43.39Q117.29,46.03,120.535,47.515Q123.78,49,127.795,49L151.6,49ZM56.065,50L63.51,50L63.51,17.75L56.065,17.75L56.065,50ZM95.881,42.4309Q97.205,45.5721,97.205,49L97.205,50L104.705,50L104.705,17.75L97.205,17.75L97.205,30.8391Q95.471,28.8237,93.4417,27.0686Q90.321,24.3697,86.8883,22.3438Q83.444,20.3111,80.0184,19.1504Q77.0828,18.1557,74.4,17.8813L74.4,17.75L69.43,17.75L69.43,50L76.93,50L76.93,25.9381Q79.0565,26.5773,81.3371,27.7278Q84.2988,29.222,87.1339,31.4687Q89.9665,33.7134,92.2644,36.4923Q94.5356,39.2389,95.881,42.4309ZM75.93,25.6637L75.93,49L70.43,49L70.43,18.75L73.4,18.75L73.4,18.805Q76.37,18.97,79.6975,20.0975Q83.025,21.225,86.38,23.205Q89.735,25.185,92.7875,27.825Q95.2133,29.923,97.205,32.4032Q97.7195,33.0438,98.205,33.71L98.205,18.75L103.705,18.75L103.705,49L98.205,49Q98.205,45.37,96.8025,42.0425Q95.4,38.715,93.035,35.855Q90.67,32.995,87.755,30.685Q84.84,28.375,81.7875,26.835Q79.2749,25.5674,76.93,24.896Q76.4261,24.7517,75.93,24.635L75.93,25.6637ZM61.51,49L57.065,49L57.065,18.75L62.51,18.75L62.51,49L61.51,49Z" fill-rule="evenodd" fill="#FFFFFF" fill-opacity="1"/></g><g><rect x="56" y="9" width="7.5" height="7.5" rx="0" fill="#3370FF" fill-opacity="1"/></g></g></svg>